<svg width="480" height="400" viewBox="0 0 250 201" fill="none" xmlns="http://www.w3.org/2000/svg">
  <rect width="250" height="201" rx="25" fill="#001969" />
  <path d="M12.3549 109.606L102.167 33.5353L38.2328 109.606V166.254H12.3549V109.606Z" fill="white" />
  <path d="M61.0663 106.369L125 35.1538L188.934 107.987V166.254H61.0663V106.369Z" fill="white" />
  <path d="M211.767 107.987L147.834 33.5353L237.645 107.987V167.872H211.767V107.987Z" fill="white" />
  <path fill-rule="evenodd" clip-rule="evenodd"
    d="M147.564 33.765L148.06 33.2634L238 107.821V168.226H211.412V108.118L147.564 33.765ZM150.825 36.4746L212.122 107.856V167.519H237.29V108.153L150.825 36.4746ZM101.937 33.2658L102.439 33.7622L38.5875 109.734V166.607H12V109.442L101.937 33.2658ZM12.7096 109.769V165.9H37.878V109.477L99.2071 36.5058L12.7096 109.769ZM125.003 34.6201L189.289 107.854V166.607H60.7114V106.233L125.003 34.6201ZM61.421 106.504V165.9H188.579V108.12L124.997 35.6873L61.421 106.504Z"
    fill="white" />
  <path
    d="M49.6076 49.4435C49.6076 60.1819 41.2683 68.887 30.9812 68.887C20.6942 68.887 12.3549 60.1819 12.3549 49.4435C12.3549 38.7052 20.6942 30 30.9812 30C41.2683 30 49.6076 38.7052 49.6076 49.4435Z"
    fill="white" />
  <path
    d="M237.645 49.4435C237.645 60.1819 229.703 68.887 219.906 68.887C210.109 68.887 202.166 60.1819 202.166 49.4435C202.166 38.7052 210.109 30 219.906 30C229.703 30 237.645 38.7052 237.645 49.4435Z"
    fill="white" />
</svg>