<svg width="247" height="182" viewBox="0 0 247 182" fill="none" xmlns="http://www.w3.org/2000/svg">
  <path d="M41 50.81L106.946 2.25641L60.0012 50.81V86.9669H41V50.81Z" fill="white" />
  <path d="M76.7671 48.7439L123.711 3.28946L170.656 49.777V86.9669H76.7671V48.7439Z" fill="white" />
  <path d="M187.421 49.777L140.477 2.25641L206.423 49.777V88H187.421V49.777Z" fill="white" />
  <path fill-rule="evenodd" clip-rule="evenodd"
    d="M140.279 2.4031L140.644 2.08295L206.683 49.6712V88.2256H187.161V49.8603L140.279 2.4031ZM142.673 4.13256L187.682 49.6936V87.7744H206.162V49.8827L142.673 4.13256ZM106.777 2.08449L107.145 2.40128L60.2618 50.892V87.1926H40.7395V50.7057L106.777 2.08449ZM41.2605 50.9143V86.7413H59.7407V50.728L104.773 4.15247L41.2605 50.9143ZM123.714 2.9489L170.916 49.6922V87.1926H76.5066V48.6577L123.714 2.9489ZM77.0276 48.8301V86.7413H170.395V49.8617L123.709 3.63002L77.0276 48.8301Z"
    fill="white" />
  <path
    d="M68.3533 12.4103C68.3533 19.2643 62.2301 24.8205 54.6767 24.8205C47.1233 24.8205 41 19.2643 41 12.4103C41 5.55626 47.1233 0 54.6767 0C62.2301 0 68.3533 5.55626 68.3533 12.4103Z"
    fill="white" />
  <path
    d="M206.423 12.4103C206.423 19.2643 200.591 24.8205 193.397 24.8205C186.203 24.8205 180.372 19.2643 180.372 12.4103C180.372 5.55626 186.203 0 193.397 0C200.591 0 206.423 5.55626 206.423 12.4103Z"
    fill="white" />
  <path
    d="M16.8704 131.158C18.2879 131.158 19.5743 130.955 20.7298 130.549C21.9008 130.144 22.7712 129.746 23.3413 129.355L26.2994 135.079C25.5753 135.68 24.335 136.288 22.5787 136.904C20.8377 137.52 18.7655 137.828 16.362 137.828C14.1126 137.828 12.0019 137.445 10.0298 136.679C8.05776 135.913 6.31679 134.839 4.80692 133.456C3.31246 132.059 2.13384 130.429 1.27106 128.566C0.423685 126.688 0 124.653 0 122.459C0 120.266 0.423685 118.23 1.27106 116.352C2.11843 114.459 3.28935 112.814 4.78381 111.417C6.29368 110.02 8.03465 108.938 10.0067 108.172C11.9942 107.391 14.1126 107 16.362 107C18.7655 107 20.8377 107.308 22.5787 107.924C24.335 108.54 25.5753 109.148 26.2994 109.749L23.3413 115.473C22.7712 115.068 21.9008 114.669 20.7298 114.279C19.5743 113.873 18.2879 113.67 16.8704 113.67C15.2989 113.67 13.9277 113.911 12.7568 114.392C11.5859 114.857 10.6076 115.503 9.82183 116.33C9.03609 117.156 8.45063 118.087 8.06546 119.124C7.68029 120.161 7.4877 121.25 7.4877 122.392C7.4877 123.548 7.68029 124.653 8.06546 125.704C8.45063 126.741 9.03609 127.672 9.82183 128.499C10.6076 129.325 11.5859 129.978 12.7568 130.459C13.9277 130.925 15.2989 131.158 16.8704 131.158Z"
    fill="white" />
  <path
    d="M36.7236 122.392C36.7236 124.089 37.0779 125.629 37.7866 127.011C38.5107 128.378 39.5045 129.468 40.7678 130.279C42.0466 131.09 43.5256 131.496 45.205 131.496C46.8843 131.496 48.3557 131.09 49.619 130.279C50.8978 129.468 51.8915 128.378 52.6003 127.011C53.3244 125.629 53.6864 124.089 53.6864 122.392C53.6864 120.694 53.3244 119.162 52.6003 117.794C51.8915 116.427 50.8978 115.338 49.619 114.527C48.3557 113.7 46.8843 113.287 45.205 113.287C43.5256 113.287 42.0466 113.7 40.7678 114.527C39.5045 115.338 38.5107 116.427 37.7866 117.794C37.0779 119.162 36.7236 120.694 36.7236 122.392ZM29.5363 122.392C29.5363 120.228 29.9291 118.215 30.7149 116.352C31.5006 114.474 32.6022 112.837 34.0197 111.439C35.4371 110.042 37.101 108.953 39.0115 108.172C40.9219 107.391 42.9864 107 45.205 107C47.4544 107 49.5266 107.391 51.4216 108.172C53.3321 108.953 54.9883 110.042 56.3903 111.439C57.8078 112.837 58.9016 114.474 59.672 116.352C60.4577 118.215 60.8506 120.228 60.8506 122.392C60.8506 124.57 60.4731 126.598 59.7182 128.476C58.9633 130.339 57.8848 131.977 56.4828 133.389C55.0808 134.786 53.4245 135.875 51.5141 136.656C49.6036 137.438 47.5006 137.828 45.205 137.828C42.8632 137.828 40.7293 137.438 38.8035 136.656C36.893 135.875 35.2445 134.786 33.8579 133.389C32.4713 131.977 31.4005 130.339 30.6456 128.476C29.906 126.598 29.5363 124.57 29.5363 122.392Z"
    fill="white" />
  <path
    d="M71.2126 113.715L71.7211 113.806V137.287H64.8111V107.541H74.2401L86.604 130.977L86.0956 131.068V107.541H93.0056V137.287H83.5304L71.2126 113.715Z"
    fill="white" />
  <path
    d="M109.329 107C111.224 107 112.88 107.203 114.297 107.608C115.715 108.014 116.855 108.442 117.718 108.893C118.58 109.344 119.104 109.644 119.289 109.794L115.961 115.225C115.715 115.045 115.291 114.782 114.69 114.437C114.105 114.091 113.404 113.783 112.587 113.513C111.786 113.242 110.946 113.107 110.068 113.107C108.882 113.107 107.919 113.317 107.179 113.738C106.455 114.144 106.093 114.752 106.093 115.563C106.093 116.119 106.286 116.623 106.671 117.073C107.071 117.509 107.672 117.93 108.473 118.335C109.29 118.726 110.322 119.154 111.57 119.62C112.71 120.025 113.781 120.506 114.783 121.062C115.784 121.618 116.662 122.279 117.417 123.045C118.187 123.796 118.796 124.668 119.243 125.659C119.69 126.651 119.913 127.777 119.913 129.039C119.913 130.542 119.597 131.849 118.966 132.961C118.334 134.057 117.471 134.966 116.377 135.687C115.299 136.408 114.066 136.942 112.68 137.287C111.308 137.648 109.883 137.828 108.404 137.828C106.309 137.828 104.429 137.595 102.765 137.13C101.117 136.664 99.7841 136.161 98.7672 135.62C97.7504 135.079 97.1418 134.718 96.9415 134.538L100.385 128.882C100.57 129.017 100.924 129.235 101.448 129.535C101.987 129.836 102.642 130.151 103.412 130.482C104.183 130.797 104.999 131.068 105.862 131.293C106.74 131.518 107.603 131.631 108.45 131.631C109.868 131.631 110.931 131.368 111.64 130.842C112.348 130.301 112.703 129.595 112.703 128.724C112.703 128.078 112.479 127.5 112.032 126.989C111.586 126.478 110.915 125.997 110.022 125.546C109.128 125.081 108.011 124.592 106.671 124.082C105.331 123.556 104.075 122.917 102.904 122.166C101.748 121.415 100.809 120.476 100.084 119.349C99.3604 118.223 98.9983 116.825 98.9983 115.158C98.9983 113.49 99.4759 112.048 100.431 110.831C101.402 109.599 102.673 108.653 104.244 107.992C105.831 107.331 107.526 107 109.329 107Z"
    fill="white" />
  <path
    d="M141.709 107.541H148.619V125.817C148.619 128.266 148.126 130.392 147.14 132.194C146.154 133.982 144.744 135.372 142.911 136.363C141.078 137.34 138.89 137.828 136.348 137.828C133.79 137.828 131.587 137.34 129.738 136.363C127.889 135.372 126.472 133.982 125.486 132.194C124.515 130.392 124.03 128.266 124.03 125.817V107.541H130.917V125.456C130.917 126.808 131.132 127.95 131.564 128.882C132.011 129.813 132.642 130.519 133.459 131C134.275 131.466 135.238 131.699 136.348 131.699C137.442 131.699 138.389 131.466 139.19 131C139.991 130.519 140.608 129.813 141.039 128.882C141.486 127.95 141.709 126.808 141.709 125.456V107.541Z"
    fill="white" />
  <path d="M153.69 107.541H160.6V131.383H171.67V137.287H153.69V107.541Z" fill="white" />
  <path d="M178.464 113.445H171.184V107.541H192.631V113.445H185.374V137.287H178.464V113.445Z" fill="white" />
  <path
    d="M202.847 107.541H209.71L221.751 137.287H214.379L212.16 131.315H200.42L198.178 137.287H190.783L202.847 107.541ZM202.731 125.411H209.872L206.336 115.654H206.267L202.731 125.411Z"
    fill="white" />
  <path
    d="M224.052 107.541H236.485C238.257 107.541 239.836 107.901 241.222 108.623C242.609 109.344 243.703 110.388 244.504 111.755C245.321 113.107 245.729 114.722 245.729 116.6C245.729 118.478 245.382 120.018 244.689 121.22C244.011 122.407 243.195 123.3 242.239 123.901C241.284 124.487 240.398 124.84 239.582 124.961L247 137.287H239.235L232.625 125.479H230.962V137.287H224.052V107.541ZM230.962 120.814H234.012C235.245 120.814 236.323 120.521 237.248 119.935C238.172 119.349 238.634 118.313 238.634 116.825C238.634 115.338 238.18 114.309 237.271 113.738C236.362 113.152 235.291 112.859 234.058 112.859H230.962V120.814Z"
    fill="white" />
  <path
    d="M10.7199 147.315H26.8971V151.023H14.9462V158.496H26.6949V162.104H14.9462V169.637H26.8971V173.344H10.7199V147.315Z"
    fill="white" />
  <path
    d="M45.999 156.682C47.118 156.682 48.2032 156.905 49.2547 157.352C50.3062 157.799 51.169 158.515 51.843 159.501C52.5306 160.474 52.8743 161.743 52.8743 163.307V173.344H48.5267V164.076C48.5267 162.617 48.1695 161.546 47.455 160.862C46.754 160.165 45.844 159.817 44.7251 159.817C43.9837 159.817 43.2759 160.021 42.6018 160.428C41.9278 160.836 41.3751 161.388 40.9437 162.085C40.5258 162.781 40.3168 163.583 40.3168 164.49V173.344H35.9894V157.155H40.3168V159.876C40.4382 159.429 40.7617 158.962 41.2875 158.476C41.8267 157.977 42.5075 157.556 43.3298 157.214C44.1522 156.859 45.0419 156.682 45.999 156.682Z"
    fill="white" />
  <path
    d="M69.4139 182C68.1467 182 66.9671 181.875 65.8751 181.625C64.7966 181.389 63.8328 181.027 62.9835 180.541C62.1342 180.068 61.4466 179.483 60.9209 178.786L63.6103 176.183C63.8934 176.525 64.2574 176.88 64.7023 177.248C65.1472 177.629 65.7336 177.945 66.4615 178.194C67.1895 178.457 68.113 178.589 69.2319 178.589C70.3238 178.589 71.254 178.372 72.0224 177.938C72.8043 177.504 73.3975 176.906 73.8019 176.144C74.2198 175.394 74.4288 174.527 74.4288 173.541V173.048H78.6753V173.797C78.6753 175.585 78.2641 177.084 77.4418 178.293C76.6194 179.515 75.5073 180.436 74.1053 181.054C72.7032 181.685 71.1394 182 69.4139 182ZM74.4288 173.344V170.346C74.3209 170.662 74.0109 171.096 73.4986 171.648C72.9998 172.2 72.3123 172.7 71.436 173.146C70.5732 173.593 69.5487 173.817 68.3624 173.817C66.8121 173.817 65.4168 173.455 64.1765 172.732C62.9363 172.009 61.9589 171.004 61.2444 169.715C60.5299 168.427 60.1727 166.942 60.1727 165.259C60.1727 163.577 60.5299 162.091 61.2444 160.803C61.9589 159.515 62.9363 158.509 64.1765 157.786C65.4168 157.05 66.8121 156.682 68.3624 156.682C69.5217 156.682 70.5261 156.879 71.3754 157.273C72.2247 157.668 72.9054 158.121 73.4177 158.634C73.9435 159.146 74.267 159.593 74.3883 159.975V157.155H78.6753V173.344H74.4288ZM64.4394 165.259C64.4394 166.298 64.6753 167.205 65.1472 167.98C65.619 168.756 66.2324 169.354 66.9873 169.775C67.7557 170.195 68.5781 170.406 69.4543 170.406C70.398 170.406 71.2338 170.189 71.9618 169.755C72.7032 169.321 73.2829 168.723 73.7008 167.961C74.1322 167.185 74.3479 166.285 74.3479 165.259C74.3479 164.234 74.1322 163.34 73.7008 162.577C73.2829 161.802 72.7032 161.197 71.9618 160.763C71.2338 160.316 70.398 160.093 69.4543 160.093C68.5781 160.093 67.7557 160.31 66.9873 160.744C66.2324 161.164 65.619 161.762 65.1472 162.538C64.6753 163.314 64.4394 164.221 64.4394 165.259Z"
    fill="white" />
  <path
    d="M90.2994 166.245C90.3264 167.1 90.5354 167.869 90.9263 168.552C91.3173 169.236 91.8902 169.775 92.6451 170.169C93.4136 170.55 94.3505 170.741 95.4559 170.741C96.4131 170.741 97.2354 170.616 97.9229 170.366C98.6239 170.103 99.2036 169.794 99.662 169.439C100.12 169.071 100.457 168.73 100.673 168.414L102.594 170.958C102.176 171.51 101.65 172.003 101.017 172.437C100.383 172.87 99.5946 173.206 98.6509 173.442C97.7207 173.692 96.5681 173.817 95.193 173.817C93.3866 173.817 91.8161 173.455 90.4814 172.732C89.1468 172.009 88.1088 170.991 87.3673 169.676C86.6394 168.361 86.2754 166.823 86.2754 165.062C86.2754 163.485 86.6124 162.065 87.2865 160.803C87.9605 159.528 88.9379 158.522 90.2186 157.786C91.5127 157.05 93.063 156.682 94.8695 156.682C96.5546 156.682 98.0173 157.01 99.2575 157.668C100.498 158.325 101.455 159.271 102.129 160.507C102.817 161.73 103.16 163.208 103.16 164.944C103.16 165.049 103.154 165.266 103.14 165.594C103.14 165.923 103.127 166.14 103.1 166.245H90.2994ZM99.116 163.169C99.1025 162.748 98.9542 162.269 98.6711 161.73C98.4015 161.191 97.9634 160.724 97.3567 160.33C96.7501 159.922 95.9412 159.718 94.9302 159.718C93.8921 159.718 93.0496 159.915 92.4025 160.31C91.7554 160.691 91.2768 161.151 90.9668 161.69C90.6567 162.216 90.4747 162.709 90.4208 163.169H99.116Z"
    fill="white" />
  <path
    d="M120.81 156.682C121.929 156.682 123.015 156.905 124.066 157.352C125.118 157.799 125.98 158.515 126.654 159.501C127.342 160.474 127.686 161.743 127.686 163.307V173.344H123.338V164.076C123.338 162.617 122.981 161.546 122.266 160.862C121.565 160.165 120.655 159.817 119.536 159.817C118.795 159.817 118.087 160.021 117.413 160.428C116.739 160.836 116.186 161.388 115.755 162.085C115.337 162.781 115.128 163.583 115.128 164.49V173.344H110.801V157.155H115.128V159.876C115.25 159.429 115.573 158.962 116.099 158.476C116.638 157.977 117.319 157.556 118.141 157.214C118.964 156.859 119.853 156.682 120.81 156.682Z"
    fill="white" />
  <path
    d="M146.126 156.682C147.231 156.682 148.31 156.905 149.361 157.352C150.413 157.799 151.276 158.515 151.95 159.501C152.637 160.474 152.981 161.743 152.981 163.307V173.344H148.634V164.076C148.634 162.617 148.29 161.546 147.602 160.862C146.928 160.165 146.032 159.817 144.913 159.817C144.171 159.817 143.457 160.021 142.769 160.428C142.082 160.836 141.516 161.388 141.071 162.085C140.639 162.781 140.424 163.583 140.424 164.49V173.344H136.076V146.211H140.424V159.876C140.545 159.429 140.868 158.962 141.394 158.476C141.933 157.977 142.614 157.556 143.437 157.214C144.259 156.859 145.155 156.682 146.126 156.682Z"
    fill="white" />
  <path
    d="M174.651 173.344V170.346C174.543 170.662 174.233 171.096 173.721 171.648C173.222 172.2 172.535 172.7 171.658 173.146C170.796 173.593 169.771 173.817 168.585 173.817C167.035 173.817 165.639 173.455 164.399 172.732C163.159 172.009 162.181 171.004 161.467 169.715C160.752 168.427 160.395 166.942 160.395 165.259C160.395 163.577 160.752 162.091 161.467 160.803C162.181 159.515 163.159 158.509 164.399 157.786C165.639 157.05 167.035 156.682 168.585 156.682C169.744 156.682 170.748 156.879 171.598 157.273C172.447 157.668 173.128 158.121 173.64 158.634C174.166 159.146 174.489 159.593 174.611 159.975V157.155H178.898V173.344H174.651ZM164.662 165.259C164.662 166.298 164.898 167.205 165.37 167.98C165.841 168.756 166.455 169.354 167.21 169.775C167.978 170.195 168.8 170.406 169.677 170.406C170.62 170.406 171.456 170.189 172.184 169.755C172.926 169.321 173.505 168.723 173.923 167.961C174.355 167.185 174.57 166.285 174.57 165.259C174.57 164.234 174.355 163.34 173.923 162.577C173.505 161.802 172.926 161.197 172.184 160.763C171.456 160.316 170.62 160.093 169.677 160.093C168.8 160.093 167.978 160.31 167.21 160.744C166.455 161.164 165.841 161.762 165.37 162.538C164.898 163.314 164.662 164.221 164.662 165.259Z"
    fill="white" />
  <path
    d="M191.496 173.344H187.189V157.155H191.496V159.856H191.395C191.49 159.528 191.746 159.12 192.164 158.634C192.595 158.134 193.188 157.687 193.943 157.293C194.698 156.885 195.608 156.682 196.673 156.682C197.441 156.682 198.129 156.787 198.736 156.997C199.342 157.208 199.774 157.418 200.03 157.628L198.291 161.099C198.115 160.888 197.785 160.685 197.3 160.487C196.828 160.277 196.242 160.172 195.541 160.172C194.664 160.172 193.923 160.422 193.316 160.921C192.723 161.421 192.271 162.019 191.961 162.715C191.651 163.412 191.496 164.063 191.496 164.668V173.344Z"
    fill="white" />
  <path
    d="M206.491 173.344V157.155H210.798V173.344H206.491ZM208.695 152.304C207.967 152.304 207.34 152.048 206.814 151.535C206.302 151.023 206.046 150.411 206.046 149.701C206.046 148.992 206.302 148.38 206.814 147.868C207.34 147.342 207.967 147.079 208.695 147.079C209.18 147.079 209.625 147.204 210.03 147.454C210.447 147.69 210.778 148.006 211.02 148.4C211.277 148.781 211.405 149.215 211.405 149.701C211.405 150.411 211.142 151.023 210.616 151.535C210.09 152.048 209.45 152.304 208.695 152.304Z"
    fill="white" />
  <path
    d="M233.072 173.344V170.346C232.964 170.662 232.654 171.096 232.142 171.648C231.643 172.2 230.956 172.7 230.079 173.146C229.217 173.593 228.192 173.817 227.006 173.817C225.455 173.817 224.06 173.455 222.82 172.732C221.58 172.009 220.602 171.004 219.888 169.715C219.173 168.427 218.816 166.942 218.816 165.259C218.816 163.577 219.173 162.091 219.888 160.803C220.602 159.515 221.58 158.509 222.82 157.786C224.06 157.05 225.455 156.682 227.006 156.682C228.165 156.682 229.169 156.879 230.019 157.273C230.868 157.668 231.549 158.121 232.061 158.634C232.587 159.146 232.91 159.593 233.032 159.975V157.155H237.319V173.344H233.072ZM223.083 165.259C223.083 166.298 223.319 167.205 223.791 167.98C224.262 168.756 224.876 169.354 225.631 169.775C226.399 170.195 227.221 170.406 228.098 170.406C229.041 170.406 229.877 170.189 230.605 169.755C231.347 169.321 231.926 168.723 232.344 167.961C232.776 167.185 232.991 166.285 232.991 165.259C232.991 164.234 232.776 163.34 232.344 162.577C231.926 161.802 231.347 161.197 230.605 160.763C229.877 160.316 229.041 160.093 228.098 160.093C227.221 160.093 226.399 160.31 225.631 160.744C224.876 161.164 224.262 161.762 223.791 162.538C223.319 163.314 223.083 164.221 223.083 165.259Z"
    fill="white" />
</svg>