<svg width="521" height="533" viewBox="0 0 521 533" fill="none" xmlns="http://www.w3.org/2000/svg">
  <path
    d="M279.073 0V71.5997L353.846 30.2922L372.419 61.0818L279.073 112.623V235.71L390.509 174.167V71.0667H427.654V153.646L492.491 117.864L511.064 148.636L446.227 184.436L521 225.725L502.427 256.515L409.081 204.938L297.646 266.482L409.1 328.044L502.427 276.485L521 307.257L446.227 348.546L511.064 384.364L492.491 415.136L427.654 379.336V461.933H390.509V358.816L279.073 297.254V420.359L372.419 471.918L353.846 502.69L279.073 461.383V533H241.928V461.383L167.154 502.69L148.582 471.918L241.928 420.359V297.254L130.492 358.798V461.933H93.3468V379.318L28.5276 415.136L9.95493 384.364L74.7555 348.546L0 307.257L18.5726 276.485L111.901 328.026L223.337 266.482L111.919 204.938L18.5726 256.515L0 225.725L74.7741 184.436L9.95493 148.636L28.5276 117.864L93.3468 153.646V71.0667H130.492V174.167L241.928 235.71V112.623L148.582 61.0818L167.154 30.2922L241.928 71.5997V0H279.073Z"
    fill="white" fill-opacity="0.1" />
</svg>